<svg width="90" height="28" viewBox="0 0 90 28" fill="none" xmlns="http://www.w3.org/2000/svg">
<path d="M75.2584 27.3718V16.8923L76.1578 19.3167L64.3879 0H68.5719L78.4648 16.3058H76.1969L86.1289 0H90L78.2693 19.3167L79.1296 16.8923V27.3718H75.2584Z" fill="black"/>
<path d="M46.5221 20.7635L46.3266 15.9929L61.8502 0H66.3079L54.3035 12.6692L52.1137 15.0936L46.5221 20.7635ZM43.0811 27.3718V0H46.9913V27.3718H43.0811ZM62.4759 27.3718L51.2535 14.3115L53.8733 11.4179L67.0509 27.3718H62.4759Z" fill="black"/>
<path d="M31.6405 27.3718V0H35.5507V27.3718H31.6405Z" fill="black"/>
<path d="M0 27.3718V0H11.5352C14.4549 0 17.0226 0.573505 19.2384 1.72051C21.4803 2.86752 23.2138 4.47073 24.439 6.53013C25.6903 8.58953 26.316 10.9748 26.316 13.6859C26.316 16.397 25.6903 18.7823 24.439 20.8417C23.2138 22.9011 21.4803 24.5043 19.2384 25.6513C17.0226 26.7983 14.4549 27.3718 11.5352 27.3718H0ZM3.91025 23.9699H11.3006C13.5686 23.9699 15.5237 23.5397 17.166 22.6795C18.8344 21.8192 20.1247 20.6201 21.0371 19.082C21.9495 17.5179 22.4057 15.7192 22.4057 13.6859C22.4057 11.6265 21.9495 9.82778 21.0371 8.28974C20.1247 6.75171 18.8344 5.55256 17.166 4.69231C15.5237 3.83205 13.5686 3.40192 11.3006 3.40192H3.91025V23.9699Z" fill="black"/>
</svg>
