<?xml version="1.0" standalone="no"?>
<!DOCTYPE svg PUBLIC "-//W3C//DTD SVG 20010904//EN"
 "http://www.w3.org/TR/2001/REC-SVG-20010904/DTD/svg10.dtd">
<svg version="1.0" xmlns="http://www.w3.org/2000/svg"
 width="1024.000000pt" height="1024.000000pt" viewBox="0 0 1024.000000 1024.000000"
 preserveAspectRatio="xMidYMid meet">

<g transform="translate(0.000000,1024.000000) scale(0.100000,-0.100000)"
fill="#000000" stroke="none">
<path d="M4330 8156 c0 -22 5 -25 48 -31 132 -17 179 -49 193 -132 4 -26 8
-378 8 -781 l1 -733 88 86 c48 48 124 118 170 157 l82 69 0 602 c0 570 1 604
19 644 23 50 57 69 149 86 57 10 67 15 70 35 l3 22 -415 0 -416 0 0 -24z"/>
<path d="M5355 6910 c-49 -10 -117 -28 -150 -40 -121 -42 -263 -125 -310 -182
-11 -12 -13 -17 -5 -10 36 32 40 18 40 -160 l0 -172 45 90 c75 150 181 255
325 326 106 51 165 63 315 63 97 0 145 -5 189 -18 90 -28 177 -74 246 -129 34
-28 65 -46 69 -42 4 5 31 34 60 66 l52 56 -66 37 c-90 51 -232 100 -344 119
-129 22 -348 20 -466 -4z"/>
<path d="M6236 6641 c-36 -38 -66 -73 -66 -78 0 -4 16 -31 36 -58 44 -62 114
-200 142 -280 65 -190 86 -333 86 -580 0 -287 -35 -454 -138 -652 -138 -267
-395 -428 -682 -426 -255 2 -466 115 -611 328 -49 73 -96 165 -113 223 -7 23
-16 42 -19 42 -8 0 -59 -78 -101 -155 -18 -33 -44 -72 -58 -87 l-24 -26 64
-65 c249 -248 572 -370 938 -353 206 9 347 47 523 138 169 88 298 205 417 379
92 134 154 282 192 454 20 93 17 402 -4 491 -24 98 -74 236 -113 314 -70 139
-216 314 -346 415 l-56 44 -67 -68z"/>
<path d="M4628 6428 c-62 -74 -80 -102 -126 -193 -110 -219 -148 -503 -102
-767 10 -62 28 -139 39 -170 26 -77 85 -208 92 -208 12 0 38 115 48 212 6 54
11 311 11 582 l0 485 45 56 c25 30 43 55 41 55 -2 0 -24 -24 -48 -52z"/>
<path d="M5579 5963 c-13 -16 -12 -17 4 -4 9 7 17 15 17 17 0 8 -8 3 -21 -13z"/>
<path d="M5405 5880 c-16 -16 -25 -30 -19 -29 8 0 60 59 52 59 -3 0 -17 -13
-33 -30z"/>
<path d="M5259 5723 c-13 -16 -12 -17 4 -4 9 7 17 15 17 17 0 8 -8 3 -21 -13z"/>
<path d="M5299 5663 c-13 -16 -12 -17 4 -4 9 7 17 15 17 17 0 8 -8 3 -21 -13z"/>
<path d="M5179 5643 c-13 -16 -12 -17 4 -4 9 7 17 15 17 17 0 8 -8 3 -21 -13z"/>
<path d="M5024 5478 l-19 -23 23 19 c21 18 27 26 19 26 -2 0 -12 -10 -23 -22z"/>
<path d="M5089 5433 c-13 -16 -12 -17 4 -4 16 13 21 21 13 21 -2 0 -10 -8 -17
-17z"/>
<path d="M4710 5173 c-113 -115 -230 -230 -260 -257 -30 -27 -44 -42 -30 -33
48 33 114 94 248 232 76 77 166 168 202 202 36 35 61 63 56 63 -5 0 -102 -93
-216 -207z"/>
<path d="M3367 4944 c3 -154 7 -280 8 -282 2 -2 59 -15 127 -30 108 -23 147
-26 323 -26 215 -1 287 9 424 61 77 29 181 84 181 96 0 5 -11 23 -25 41 -14
18 -25 38 -25 45 0 7 -3 11 -7 9 -5 -1 -37 -18 -73 -36 -97 -48 -192 -65 -330
-59 -136 6 -224 30 -323 88 -115 68 -206 178 -262 315 l-23 56 5 -278z"/>
<path d="M4855 5180 c-3 -6 1 -7 9 -4 18 7 21 14 7 14 -6 0 -13 -4 -16 -10z"/>
<path d="M4715 5017 c-49 -50 -72 -78 -50 -61 22 18 53 47 69 65 16 19 40 46
54 62 14 15 24 27 21 27 -2 0 -44 -42 -94 -93z"/>
<path d="M1628 3363 c-15 -4 -17 -24 -20 -169 l-3 -166 -33 -29 c-39 -35 -89
-38 -147 -9 -30 15 -41 17 -47 7 -4 -6 -8 -15 -8 -18 0 -12 98 -49 130 -49 67
0 127 44 149 109 12 38 16 317 4 324 -5 2 -16 2 -25 0z"/>
<path d="M1978 3228 c-4 -164 1 -195 43 -243 72 -82 235 -69 296 24 22 32 23
44 23 199 0 146 -2 163 -16 158 -9 -3 -18 -6 -20 -6 -2 0 -4 -62 -5 -137 0
-159 -10 -198 -58 -230 -63 -43 -168 -23 -203 39 -8 15 -15 77 -18 178 -4 134
-7 155 -22 158 -14 3 -17 -14 -20 -140z"/>
<path d="M2666 3362 c-3 -3 -6 -99 -6 -214 l0 -208 130 0 c103 0 130 3 130 14
0 9 -25 15 -96 20 -52 3 -99 4 -104 1 -6 -4 -11 74 -12 191 -3 176 -5 197 -20
200 -9 1 -19 -1 -22 -4z"/>
<path d="M3188 3156 l-3 -216 23 0 22 0 -2 212 c-3 192 -5 213 -20 216 -16 3
-17 -15 -20 -212z"/>
<path d="M3636 3232 c-33 -75 -76 -172 -97 -214 l-36 -78 26 0 c22 0 30 9 53
60 l26 60 110 0 110 0 24 -60 c20 -52 26 -60 49 -60 l27 0 -43 103 c-23 56
-61 145 -85 197 -23 52 -44 103 -47 113 -3 10 -15 17 -32 17 -24 0 -31 -11
-85 -138z m132 -25 c23 -54 42 -101 42 -105 0 -8 -169 -6 -177 1 -2 3 14 48
36 100 23 53 41 102 41 108 0 24 17 -6 58 -104z"/>
<path d="M4190 3155 c0 -207 1 -215 20 -215 19 0 20 8 22 174 l3 173 150 -173
c83 -95 156 -173 163 -173 9 -1 12 48 12 214 0 208 -1 215 -20 215 -19 0 -20
-7 -20 -165 0 -183 0 -184 -60 -111 -131 160 -237 276 -252 276 -17 0 -18 -17
-18 -215z"/>
<path d="M5403 3345 c-124 -62 -159 -232 -71 -339 96 -117 300 -96 370 37 33
63 31 158 -5 220 -60 102 -184 137 -294 82z m170 -29 c104 -43 139 -198 64
-283 -58 -66 -138 -81 -217 -40 -97 49 -118 189 -42 279 46 55 126 73 195 44z"/>
<path d="M6073 3351 c-47 -22 -63 -45 -63 -91 0 -62 27 -84 144 -120 106 -33
138 -74 101 -127 -34 -48 -155 -55 -215 -13 l-29 20 -6 -21 c-5 -16 -2 -25 11
-33 88 -52 199 -48 260 9 29 28 34 39 34 79 0 67 -32 97 -142 130 -100 31
-124 51 -111 93 17 51 96 69 170 38 29 -12 38 -13 45 -3 12 20 10 24 -19 37
-50 23 -133 24 -180 2z"/>
<path d="M7256 3363 c-3 -4 -6 -100 -6 -215 0 -201 1 -208 20 -208 19 0 20 7
20 209 0 170 -3 210 -14 214 -8 3 -17 3 -20 0z"/>
<path d="M7989 3363 c-14 -3 -16 -25 -15 -168 1 -91 -2 -164 -5 -163 -4 2 -69
76 -145 166 -104 121 -144 162 -161 162 l-23 0 0 -210 c0 -203 1 -210 20 -210
19 0 20 8 22 174 l3 173 150 -173 c83 -95 158 -173 168 -173 16 -1 17 15 17
208 0 116 -3 212 -7 214 -5 2 -15 2 -24 0z"/>
<path d="M8395 3193 c-43 -98 -86 -195 -95 -215 l-18 -38 26 0 c23 0 30 8 46
48 30 73 27 72 145 72 l106 0 24 -60 c21 -53 27 -60 52 -60 l27 0 -92 213
c-123 283 -115 281 -221 40z m146 21 c22 -54 43 -103 45 -109 3 -8 -149 -14
-178 -7 -6 2 16 58 75 194 6 15 13 26 14 24 2 -1 21 -47 44 -102z"/>
<path d="M6630 3150 l0 -210 25 0 c25 0 25 1 25 88 l0 87 61 -3 c113 -7 189
44 189 126 0 90 -53 122 -199 122 l-101 0 0 -210z m220 151 c37 -27 40 -88 5
-121 -22 -21 -38 -25 -101 -28 l-74 -4 0 92 0 93 73 -7 c45 -4 81 -13 97 -25z"/>
<path d="M4177 2530 c5 -20 14 -20 948 -20 934 0 943 0 948 20 5 20 0 20 -948
20 -948 0 -953 0 -948 -20z m1708 3 c-453 -7 -1695 -7 -1695 0 0 4 422 6 938
5 515 -2 856 -4 757 -5z"/>
<path d="M3493 2235 c-38 -16 -63 -60 -56 -98 7 -38 57 -77 97 -77 35 0 76 23
63 36 -4 4 -13 2 -19 -4 -36 -36 -118 10 -118 67 0 35 43 74 72 66 10 -3 27
-8 38 -11 33 -9 23 13 -11 25 -18 6 -32 11 -33 11 -1 -1 -15 -7 -33 -15z"/>
<path d="M6435 2243 c-57 -14 -87 -81 -61 -132 19 -36 44 -51 85 -51 54 0 81
19 81 57 0 31 -2 33 -32 32 -25 -1 -27 -3 -10 -6 18 -4 23 -10 20 -31 -3 -24
-8 -27 -45 -30 -53 -4 -83 22 -83 72 0 49 40 79 92 71 25 -5 38 -3 38 4 0 6
-6 11 -12 11 -7 0 -22 2 -33 4 -11 2 -29 2 -40 -1z"/>
<path d="M2300 2150 c0 -53 4 -90 10 -90 6 0 10 16 10 35 0 34 1 35 38 35 41
0 69 16 72 40 7 49 -18 70 -81 70 l-49 0 0 -90z m105 35 c0 -28 -3 -30 -42
-33 l-43 -3 0 36 0 36 43 -3 c39 -3 42 -5 42 -33z"/>
<path d="M2536 2168 c3 -59 8 -76 25 -90 30 -26 75 -23 104 7 22 21 25 33 25
90 0 37 -4 65 -10 65 -6 0 -10 -28 -10 -63 0 -69 -17 -97 -58 -97 -38 0 -52
26 -52 96 0 49 -3 64 -14 64 -12 0 -14 -14 -10 -72z"/>
<path d="M2810 2150 l0 -90 43 0 c23 0 53 6 67 13 30 15 38 54 14 71 -12 9
-14 15 -6 20 19 11 14 54 -7 66 -11 5 -40 10 -65 10 l-46 0 0 -90z m105 60 c3
-6 3 -19 0 -30 -5 -16 -15 -20 -46 -20 -37 0 -39 2 -39 30 0 28 2 30 39 30 22
0 43 -5 46 -10z m10 -81 c19 -18 -10 -44 -54 -47 -39 -3 -41 -2 -41 26 0 16 3
32 7 35 8 9 75 -2 88 -14z"/>
<path d="M3070 2150 l0 -90 60 1 c41 1 60 5 57 13 -2 6 -23 10 -51 9 l-46 -1
0 79 c0 46 -4 79 -10 79 -6 0 -10 -37 -10 -90z"/>
<path d="M3300 2150 c0 -53 4 -90 10 -90 6 0 10 37 10 90 0 53 -4 90 -10 90
-6 0 -10 -37 -10 -90z"/>
<path d="M3717 2153 c1 -49 5 -87 10 -86 4 2 9 41 11 88 2 64 0 85 -10 85 -10
0 -13 -22 -11 -87z"/>
<path d="M3870 2149 l0 -91 56 4 c65 6 92 27 101 81 5 31 1 40 -25 67 -26 25
-38 30 -81 30 l-51 0 0 -91z m115 51 c21 -23 22 -77 2 -97 -8 -8 -33 -17 -56
-20 l-41 -6 0 72 0 71 38 0 c26 0 45 -7 57 -20z"/>
<path d="M4167 2156 c-41 -93 -42 -96 -27 -96 6 0 15 11 20 25 8 22 15 25 61
25 42 0 52 -3 56 -19 3 -11 12 -22 20 -25 10 -4 13 -2 10 6 -43 111 -72 168
-86 168 -11 0 -29 -29 -54 -84z m87 -14 c7 -20 4 -22 -34 -22 -38 0 -41 2 -34
23 3 12 13 35 21 51 l15 30 13 -30 c7 -17 16 -40 19 -52z"/>
<path d="M4420 2150 l0 -92 55 4 c71 6 105 35 105 89 0 59 -26 82 -99 87 l-61
4 0 -92z m120 50 c45 -45 4 -120 -65 -120 l-35 0 0 70 0 70 40 0 c27 0 47 -7
60 -20z"/>
<path d="M5272 2155 c2 -47 7 -85 12 -85 6 0 10 15 10 32 1 32 1 32 49 29 27
-1 47 2 47 8 0 5 -21 11 -47 13 -47 3 -48 4 -49 36 l0 32 52 0 c29 0 56 5 59
10 4 6 -20 10 -65 10 l-71 0 3 -85z"/>
<path d="M5545 2215 c-54 -53 -18 -141 62 -152 35 -5 45 -2 67 20 32 32 41 70
26 106 -22 55 -112 70 -155 26z m109 -6 c49 -38 26 -129 -33 -129 -38 0 -69
28 -77 67 -5 26 -1 37 19 57 32 31 56 33 91 5z"/>
<path d="M5810 2230 c0 -5 13 -10 30 -10 l29 0 3 -75 c2 -41 7 -75 12 -75 4 0
9 35 10 78 l1 77 33 -3 c18 -2 32 1 32 7 0 7 -28 11 -75 11 -43 0 -75 -4 -75
-10z"/>
<path d="M6099 2227 c-69 -53 -31 -167 56 -167 69 0 114 75 81 138 -8 16 -23
32 -31 36 -27 10 -89 6 -106 -7z m86 -3 c8 -4 23 -20 31 -36 26 -50 -6 -108
-61 -108 -35 0 -59 21 -68 59 -13 54 45 105 98 85z"/>
<path d="M6660 2150 c0 -53 4 -90 10 -90 6 0 10 16 10 35 0 32 3 35 29 35 23
0 34 -8 50 -35 11 -19 25 -35 31 -35 16 0 12 10 -16 47 -14 18 -21 33 -15 33
20 0 42 32 35 54 -10 33 -34 46 -86 46 l-48 0 0 -90z m108 41 c4 -29 -12 -41
-55 -41 -31 0 -33 2 -33 36 l0 35 43 -3 c36 -3 43 -7 45 -27z"/>
<path d="M6940 2154 c-45 -96 -44 -94 -30 -94 6 0 16 11 22 25 10 21 18 25 58
25 40 0 48 -4 58 -25 11 -25 39 -36 29 -12 -34 87 -74 167 -85 167 -7 0 -31
-39 -52 -86z m90 -24 c0 -6 -80 -10 -80 -4 0 1 9 23 21 49 l21 48 19 -43 c10
-23 19 -46 19 -50z"/>
<path d="M7190 2150 c0 -53 4 -90 10 -90 6 0 10 16 10 35 l0 35 50 0 c28 0 50
5 50 10 0 6 -22 10 -50 10 l-50 0 0 35 0 35 55 0 c30 0 55 5 55 10 0 6 -28 10
-65 10 l-65 0 0 -90z"/>
<path d="M7430 2160 c0 -44 0 -83 -1 -87 0 -4 4 -9 10 -11 7 -2 11 27 11 87 0
54 -4 91 -10 91 -6 0 -10 -33 -10 -80z"/>
<path d="M7616 2159 c-20 -44 -36 -85 -36 -90 0 -20 20 -8 26 16 6 23 11 25
58 25 47 0 54 -3 64 -25 10 -22 39 -38 30 -17 -84 207 -88 210 -142 91z m70
29 c6 -18 14 -41 19 -50 6 -16 1 -18 -34 -18 -23 0 -41 3 -41 7 0 13 35 93 40
93 3 0 10 -15 16 -32z"/>
<path d="M4934 2166 c-15 -12 -17 -18 -8 -33 26 -42 77 -16 54 28 -13 23 -20
24 -46 5z"/>
</g>
</svg>
