<?xml version="1.0" standalone="no"?>
<!DOCTYPE svg PUBLIC "-//W3C//DTD SVG 20010904//EN"
 "http://www.w3.org/TR/2001/REC-SVG-20010904/DTD/svg10.dtd">
<svg version="1.0" xmlns="http://www.w3.org/2000/svg"
 width="1254.000000pt" height="1254.000000pt" viewBox="0 0 1254.000000 1254.000000"
 preserveAspectRatio="xMidYMid meet">

<g transform="translate(0.000000,1254.000000) scale(0.100000,-0.100000)"
fill="#000000" stroke="none">
<path d="M0 6270 l0 -6270 6270 0 6270 0 0 6270 0 6270 -6270 0 -6270 0 0
-6270z m4280 3905 l0 -45 -640 0 -640 0 0 -630 0 -630 -50 0 -50 0 0 640 c0
546 2 645 15 670 8 15 20 30 27 33 7 3 311 6 676 6 l662 1 0 -45z m5339 19
c21 -26 21 -35 21 -655 l0 -629 -50 0 -50 0 0 610 0 610 -685 0 -685 0 0 45 0
45 714 0 715 0 20 -26z m-3019 -192 l0 -29 -102 -6 c-114 -7 -157 -18 -206
-54 -46 -34 -73 -94 -82 -182 -6 -58 -10 -1481 -4 -1481 0 0 44 20 96 44 117
55 250 99 382 128 137 30 466 33 596 5 137 -29 266 -74 400 -140 69 -34 128
-63 131 -65 4 -1 98 89 209 202 113 115 208 203 214 199 6 -3 8 -2 3 2 -12 13
103 124 122 118 13 -4 13 -3 2 5 -10 7 12 36 100 126 l112 116 66 0 66 0 -184
-184 c-102 -102 -189 -182 -194 -179 -6 3 -7 1 -3 -6 7 -11 -57 -78 -650 -681
-122 -124 -326 -332 -455 -463 -128 -130 -239 -235 -245 -233 -6 2 -11 -1 -10
-8 0 -7 -218 -235 -486 -507 -267 -272 -496 -505 -508 -519 -12 -14 -27 -24
-32 -22 -5 1 -6 -2 -3 -8 4 -6 -13 -42 -38 -79 l-45 -68 32 -59 c361 -671
1063 -950 1672 -665 357 168 593 506 680 976 26 139 26 507 1 645 -74 397
-223 717 -448 958 l-50 53 87 92 c47 51 90 94 95 95 29 11 227 -181 324 -313
473 -644 438 -1536 -85 -2161 -98 -116 -248 -246 -375 -324 -351 -216 -779
-288 -1193 -200 -354 75 -678 276 -897 559 -38 49 -73 90 -76 90 -3 1 -19 -11
-35 -25 -194 -172 -374 -286 -524 -332 -198 -61 -512 -52 -789 23 -84 23 -327
113 -358 133 -9 6 -9 62 2 247 8 132 17 300 21 373 l7 132 48 0 49 0 0 -107
c0 -228 42 -335 195 -489 106 -108 204 -169 345 -216 90 -30 103 -32 250 -32
146 -1 159 1 228 27 114 44 180 88 276 186 49 50 93 88 99 84 6 -3 7 -1 3 5
-7 12 33 54 45 46 5 -3 6 3 2 12 -5 14 -3 16 11 11 9 -4 15 -3 12 2 -3 4 4 18
16 30 l20 23 -40 86 c-121 256 -182 551 -168 807 22 398 192 798 465 1097 l52
57 -3 908 -3 908 -24 53 c-28 61 -75 107 -128 122 -21 6 -84 13 -140 17 l-103
6 0 29 0 28 575 0 575 0 0 -28z m-3190 -2787 l0 -35 -250 0 -250 0 0 35 0 35
250 0 250 0 0 -35z m6225 0 l0 -35 -252 0 -253 0 0 35 0 35 253 0 253 0 -1
-35z m5 -2144 c0 -584 -1 -610 -19 -632 l-19 -24 -671 -3 -671 -2 0 50 0 50
640 0 640 0 0 585 0 585 50 0 50 0 0 -609z m-6642 17 l2 -578 600 0 600 0 0
-50 0 -50 -623 0 -624 0 -24 26 -24 26 -3 591 c-1 325 0 597 3 605 3 9 19 12
47 10 l43 -3 3 -577z m4120 -1567 c160 -83 189 -303 55 -421 -44 -38 -120 -70
-168 -70 -83 0 -186 65 -228 144 -28 54 -30 174 -3 226 34 66 95 118 166 141
38 13 136 2 178 -20z m867 -1 c46 -29 58 -52 40 -76 -12 -16 -17 -17 -32 -6
-64 44 -81 52 -121 52 -35 0 -49 -6 -73 -29 -54 -54 -30 -99 68 -126 131 -36
183 -80 183 -155 0 -41 -29 -92 -65 -116 -38 -25 -109 -35 -164 -23 -54 11
-121 61 -121 90 0 32 27 33 67 0 88 -70 223 -40 223 50 0 38 -47 75 -114 90
-115 25 -175 86 -160 164 8 43 49 87 96 103 48 16 132 7 173 -18z m-6250 -181
c0 -192 0 -196 -25 -232 -32 -47 -80 -70 -146 -70 -60 0 -114 28 -132 68 -33
71 5 95 57 36 42 -46 72 -55 116 -37 61 26 65 41 65 242 0 99 3 184 7 188 4 4
19 6 33 4 l25 -3 0 -196z m576 189 c0 -7 2 -51 2 -98 6 -274 4 -259 40 -295
44 -44 100 -54 160 -27 25 11 51 31 59 44 9 16 15 79 18 203 l5 180 25 0 25 0
3 -165 c3 -198 0 -220 -40 -266 -44 -50 -82 -66 -153 -66 -101 0 -172 47 -195
130 -11 40 -14 355 -3 365 11 12 53 8 54 -5z m917 -210 l2 -217 128 -3 127 -3
0 -25 0 -25 -155 0 -155 0 -3 235 c-1 129 0 241 3 248 3 7 15 12 27 10 23 -3
23 -3 26 -220z m767 -28 l0 -245 -27 -3 -28 -3 0 251 0 251 28 -3 27 -3 0
-245z m702 238 c5 -7 49 -116 98 -241 88 -229 93 -254 49 -245 -11 2 -26 24
-40 58 l-22 55 -112 3 -111 3 -26 -61 c-21 -48 -31 -60 -49 -60 -13 0 -25 4
-28 9 -5 8 169 456 187 479 5 6 17 12 27 12 10 0 22 -6 27 -12z m822 -181
l136 -189 5 189 5 188 25 0 25 0 3 -247 2 -248 -25 0 c-19 0 -34 12 -58 46
-17 26 -79 112 -137 193 l-105 146 -5 -190 -5 -190 -25 0 -25 0 -3 248 -2 248
27 -3 c22 -2 50 -35 162 -191z m3241 175 c101 -50 109 -206 14 -268 -18 -12
-53 -19 -110 -22 l-83 -4 -3 -92 -3 -91 -27 -3 -28 -3 0 250 0 251 103 0 c77
0 110 -4 137 -18z m595 -232 l0 -245 -25 0 -25 0 -3 235 c-1 129 0 241 3 248
3 7 15 12 27 10 l23 -3 0 -245z m587 222 c12 -16 75 -101 138 -189 63 -89 117
-159 119 -157 2 2 5 84 7 181 1 98 3 181 3 186 1 4 12 7 26 7 14 0 26 -3 26
-7 5 -28 7 -461 3 -475 -3 -11 -15 -18 -29 -18 -18 0 -46 32 -139 163 -64 89
-127 176 -141 192 l-24 30 -1 -193 0 -193 -27 3 -28 3 -3 235 c-1 129 0 240 2
247 9 22 43 14 68 -15z m1113 -217 c53 -135 91 -243 86 -248 -5 -5 -19 -7 -31
-5 -16 2 -27 18 -43 58 l-22 55 -114 0 -113 0 -22 -55 c-18 -46 -27 -56 -49
-58 -19 -2 -27 1 -27 12 0 13 173 456 187 479 3 5 16 7 30 5 22 -3 33 -26 118
-243z m-3407 -707 c-4 -10 -291 -14 -1372 -18 -752 -3 -1370 -2 -1373 3 -2 4
-1 12 2 17 10 16 2748 14 2743 -2z m2082 -346 c0 -14 -39 -46 -47 -39 -3 4 2
16 12 27 19 21 35 26 35 12z m-5382 -90 c15 -10 20 -18 13 -25 -6 -6 -18 -4
-32 7 -58 40 -129 0 -129 -74 0 -51 27 -80 75 -80 20 0 46 7 59 16 34 22 42 0
10 -25 -42 -33 -95 -28 -138 13 -29 26 -36 41 -36 70 0 63 28 100 90 119 20 7
60 -3 88 -21z m2814 6 c26 -13 48 -61 48 -104 0 -28 -8 -44 -35 -71 -33 -33
-39 -35 -82 -30 -57 6 -103 50 -103 97 0 99 86 153 172 108z m746 -5 c65 -40
59 -154 -10 -189 -97 -50 -199 47 -151 144 32 65 99 84 161 45z m431 0 c16
-10 20 -18 13 -25 -7 -7 -18 -5 -33 6 -32 22 -71 20 -103 -5 -34 -27 -37 -98
-6 -129 36 -36 130 -21 130 20 0 16 -7 20 -30 20 -20 0 -30 5 -30 15 0 11 11
15 40 15 l40 0 0 -45 c0 -39 -4 -46 -30 -60 -50 -26 -97 -20 -136 19 -99 99
25 244 145 169z m-5765 -5 c36 -51 7 -108 -55 -108 -36 0 -39 -2 -40 -30 -2
-49 -3 -53 -16 -57 -10 -4 -13 22 -13 106 l0 111 54 0 c45 0 58 -4 70 -22z
m256 -62 c0 -87 6 -102 45 -106 61 -7 75 13 75 111 0 46 4 79 10 79 6 0 10
-36 10 -89 0 -85 -1 -91 -26 -110 -46 -36 -105 -27 -129 20 -21 40 -21 179 0
179 12 0 15 -16 15 -84z m507 58 c16 -25 16 -28 0 -55 -9 -16 -12 -29 -7 -29
16 0 31 -39 24 -64 -7 -31 -49 -48 -105 -44 -43 3 -44 4 -43 36 1 17 2 66 3
107 l1 75 55 0 c48 0 57 -3 72 -26z m273 -68 l0 -95 47 -3 c26 -2 48 -9 51
-15 3 -10 -14 -13 -62 -13 l-66 0 0 110 c0 91 3 110 15 110 12 0 15 -17 15
-94z m340 -17 c0 -84 -3 -110 -12 -106 -19 6 -20 217 -1 217 10 0 13 -25 13
-111z m670 1 c0 -67 -4 -110 -10 -110 -6 0 -10 43 -10 110 0 67 4 110 10 110
6 0 10 -43 10 -110z m381 81 c22 -23 29 -39 29 -70 0 -80 -42 -121 -124 -121
l-46 0 0 110 0 110 56 0 c48 0 59 -4 85 -29z m363 -56 c18 -45 36 -93 40 -108
8 -34 -10 -36 -26 -2 -10 22 -18 25 -60 25 -43 0 -50 -3 -58 -25 -9 -23 -30
-35 -30 -17 0 4 17 53 37 110 25 69 42 102 51 100 8 -2 29 -39 46 -83z m385
69 c45 -32 59 -102 30 -155 -15 -28 -63 -49 -114 -49 l-45 0 0 110 0 110 53 0
c32 0 61 -6 76 -16z m1061 6 c0 -5 -25 -10 -56 -10 l-55 0 3 -37 c2 -30 7 -38
23 -39 58 -3 66 -5 60 -14 -3 -5 -24 -10 -46 -10 l-39 0 0 -50 c0 -27 -4 -50
-10 -50 -6 0 -10 43 -10 110 l0 110 65 0 c37 0 65 -4 65 -10z m740 0 c0 -5
-13 -10 -30 -10 l-30 0 0 -100 c0 -82 -3 -100 -15 -100 -12 0 -15 18 -15 100
l0 100 -35 0 c-19 0 -35 5 -35 10 0 6 33 10 80 10 47 0 80 -4 80 -10z m1162
-7 c31 -28 15 -103 -23 -103 -5 0 2 -20 17 -45 26 -46 27 -68 1 -47 -8 7 -22
28 -33 47 -10 20 -26 35 -36 35 -15 0 -18 -9 -18 -45 0 -33 -4 -45 -15 -45
-12 0 -15 19 -15 110 l0 110 52 0 c34 0 58 -6 70 -17z m380 -88 c43 -113 43
-115 24 -115 -8 0 -17 11 -20 25 -6 23 -11 25 -56 25 -45 0 -52 -3 -60 -25 -9
-24 -30 -35 -30 -16 0 5 16 55 36 111 27 75 41 100 52 98 10 -2 31 -42 54
-103z m378 95 c0 -5 -22 -10 -50 -10 l-50 0 0 -35 c0 -34 1 -35 40 -35 29 0
40 -4 40 -15 0 -11 -11 -15 -40 -15 l-40 0 0 -50 c0 -38 -4 -50 -15 -50 -12 0
-15 19 -15 110 l0 110 65 0 c37 0 65 -4 65 -10z m240 -101 c0 -84 -3 -110 -12
-106 -10 3 -12 32 -11 108 1 57 3 105 3 107 0 1 5 2 10 2 6 0 10 -44 10 -111z
m360 13 c45 -124 44 -122 27 -122 -8 0 -18 11 -21 25 -6 23 -11 25 -60 25 -49
0 -54 -2 -60 -25 -6 -23 -26 -36 -26 -17 0 4 16 53 37 110 25 69 42 102 53
102 10 0 26 -32 50 -98z m-3809 2 c9 -11 10 -20 2 -32 -13 -22 -43 -22 -56 -1
-24 38 25 68 54 33z"/>
<path d="M6712 8330 c-142 -18 -308 -73 -424 -140 -41 -23 -78 -38 -87 -35 -8
3 -12 3 -8 -1 3 -4 -34 -36 -84 -72 -83 -60 -229 -203 -229 -226 0 -5 10 -1
23 10 12 11 57 51 101 89 124 110 190 165 196 165 3 0 5 -258 4 -572 -2 -602
-7 -688 -50 -908 -13 -69 -24 -127 -24 -129 0 -3 23 20 51 50 28 30 45 45 38
34 -13 -18 -13 -19 3 -6 10 7 16 16 13 20 -5 9 142 157 153 154 4 -2 7 1 7 6
0 7 1124 1153 1219 1242 19 18 19 19 0 40 -29 32 -200 142 -274 176 -195 89
-429 128 -628 103z"/>
<path d="M5799 7710 c-183 -377 -209 -865 -72 -1355 34 -123 38 -129 52 -64
55 249 73 537 69 1084 l-3 430 -46 -95z"/>
<path d="M6565 6889 c-11 -16 -1 -19 13 -3 7 8 8 14 3 14 -5 0 -13 -5 -16 -11z"/>
<path d="M6179 6553 c-13 -16 -12 -17 4 -4 9 7 17 15 17 17 0 8 -8 3 -21 -13z"/>
<path d="M6948 3481 c-80 -26 -132 -100 -132 -191 -1 -70 27 -125 83 -165 54
-38 133 -41 198 -7 123 64 131 260 14 337 -42 28 -119 40 -163 26z"/>
<path d="M4628 3342 c-20 -53 -40 -105 -44 -114 -6 -16 2 -18 80 -18 70 0 86
3 86 15 0 16 -68 196 -79 207 -3 3 -23 -37 -43 -90z"/>
<path d="M8593 3483 c-9 -3 -13 -33 -13 -99 l0 -94 65 0 c75 0 108 13 124 47
16 34 14 85 -4 110 -23 33 -127 55 -172 36z"/>
<path d="M10924 3424 c-4 -10 -22 -56 -40 -102 -19 -45 -34 -89 -34 -97 0 -12
16 -15 85 -15 47 0 85 3 85 7 0 8 -80 216 -86 222 -2 2 -7 -5 -10 -15z"/>
<path d="M7508 2583 c7 -3 16 -2 19 1 4 3 -2 6 -13 5 -11 0 -14 -3 -6 -6z"/>
<path d="M7045 2125 c-33 -32 -34 -93 -2 -122 44 -42 111 -30 133 23 36 87
-66 165 -131 99z"/>
<path d="M7793 2126 c-22 -19 -28 -33 -28 -64 0 -69 51 -102 114 -76 82 35 51
164 -39 164 -10 0 -31 -11 -47 -24z"/>
<path d="M2480 2111 c0 -44 16 -56 55 -41 17 6 25 17 25 33 0 31 -18 47 -52
47 -26 0 -28 -3 -28 -39z"/>
<path d="M3230 2115 c0 -34 1 -35 39 -35 31 0 41 4 46 20 9 30 -12 50 -51 50
-32 0 -34 -2 -34 -35z"/>
<path d="M3230 2016 c0 -37 12 -45 63 -38 18 3 29 12 33 28 9 34 -2 44 -52 44
-43 0 -44 0 -44 -34z"/>
<path d="M4890 2065 l0 -85 35 0 c50 0 75 29 75 84 0 36 -5 48 -26 65 -15 12
-40 21 -55 21 l-29 0 0 -85z"/>
<path d="M5297 2075 l-16 -45 38 0 39 0 -17 45 c-9 25 -19 45 -22 45 -4 0 -14
-20 -22 -45z"/>
<path d="M5650 2065 l0 -85 35 0 c69 0 104 65 70 129 -16 32 -33 41 -76 41
l-29 0 0 -85z"/>
<path d="M8620 2109 l0 -40 38 3 c30 2 38 7 40 26 5 32 -15 52 -49 52 -27 0
-29 -3 -29 -41z"/>
<path d="M9017 2076 l-16 -46 39 0 39 0 -18 40 c-25 56 -27 57 -44 6z"/>
<path d="M9997 2084 c-9 -26 -15 -50 -11 -53 3 -3 19 -6 35 -6 34 0 36 13 11
68 l-17 39 -18 -48z"/>
</g>
</svg>
