<?xml version="1.0" standalone="no"?>
<!DOCTYPE svg PUBLIC "-//W3C//DTD SVG 20010904//EN"
 "http://www.w3.org/TR/2001/REC-SVG-20010904/DTD/svg10.dtd">
<svg version="1.0" xmlns="http://www.w3.org/2000/svg"
 width="1024.000000pt" height="1024.000000pt" viewBox="0 0 1024.000000 1024.000000"
 preserveAspectRatio="xMidYMid meet">

<g transform="translate(0.000000,1024.000000) scale(0.100000,-0.100000)"
fill="#000000" stroke="none">
<path d="M1787 7898 c44 -389 208 -678 496 -875 84 -58 650 -355 1364 -716
l123 -62 2 -924 3 -923 421 -212 c232 -116 515 -257 629 -314 l207 -102 -4
212 c-4 232 -12 268 -76 360 -26 38 -222 209 -455 397 l-117 95 0 771 c0 514
-4 791 -11 830 -20 107 -89 210 -184 274 -22 15 -260 139 -530 276 -269 136
-539 273 -600 305 -60 31 -195 101 -300 155 -104 54 -226 117 -270 140 -155
82 -692 355 -697 355 -4 0 -4 -19 -1 -42z"/>
<path d="M7695 7514 c-456 -234 -990 -507 -1185 -607 -375 -193 -442 -236
-497 -323 -65 -102 -63 -77 -64 -953 l0 -796 -71 -55 c-96 -74 -394 -323 -441
-368 -50 -49 -101 -134 -121 -202 -16 -58 -28 -440 -14 -440 4 0 288 142 630
315 l623 314 5 927 5 927 115 59 c63 33 284 144 490 248 879 443 909 461 1047
603 128 132 204 260 261 437 45 141 77 340 55 340 -5 0 -381 -192 -838 -426z"/>
<path d="M5000 7671 c-90 -29 -155 -67 -224 -131 -119 -112 -174 -229 -183
-390 -11 -209 78 -393 245 -504 88 -58 152 -82 255 -97 198 -29 404 61 523
226 128 180 142 417 37 617 -19 36 -50 85 -70 107 -54 64 -156 131 -246 162
-70 24 -97 29 -182 28 -68 0 -118 -6 -155 -18z"/>
<path d="M2210 6726 c0 -46 30 -196 56 -278 55 -173 144 -316 276 -444 105
-102 183 -149 577 -348 l351 -177 0 319 0 318 -202 102 c-112 56 -393 198
-625 317 -233 118 -425 215 -428 215 -3 0 -5 -11 -5 -24z"/>
<path d="M7474 6432 l-632 -317 -1 -317 c-1 -233 2 -318 10 -318 23 0 740 370
816 421 185 124 317 302 393 527 42 126 74 323 53 322 -5 -1 -292 -144 -639
-318z"/>
<path d="M1716 3312 c-3 -4 -5 -160 -5 -345 l-1 -337 355 0 355 0 0 60 0 60
-275 0 -275 0 0 285 0 285 -74 0 c-41 0 -77 -4 -80 -8z"/>
<path d="M2900 2975 l0 -345 80 0 80 0 -2 343 -3 342 -77 3 -78 3 0 -346z"/>
<path d="M3680 2975 l0 -345 75 0 75 0 0 245 0 245 223 -192 c387 -335 336
-298 406 -298 l61 0 0 345 0 345 -76 0 -76 0 4 -245 c4 -225 1 -264 -17 -235
-4 6 -130 116 -280 245 l-273 235 -61 0 -61 0 0 -345z"/>
<path d="M5970 2975 l0 -345 75 0 75 0 0 140 0 140 155 0 155 0 0 60 0 60
-155 0 -155 0 0 85 0 85 280 0 280 0 0 60 0 60 -355 0 -355 0 0 -345z"/>
<path d="M7140 2975 l0 -345 80 0 80 0 -2 343 -3 342 -77 3 -78 3 0 -346z"/>
<path d="M7780 3260 l0 -60 160 0 160 0 0 -285 0 -285 80 0 80 0 0 285 0 285
160 0 160 0 0 60 0 60 -400 0 -400 0 0 -60z"/>
<path d="M5136 3250 c-54 -17 -103 -60 -125 -110 -63 -146 32 -293 189 -293
94 0 169 54 199 142 52 157 -101 309 -263 261z"/>
</g>
</svg>
