<?xml version="1.0" standalone="no"?>
<!DOCTYPE svg PUBLIC "-//W3C//DTD SVG 20010904//EN"
 "http://www.w3.org/TR/2001/REC-SVG-20010904/DTD/svg10.dtd">
<svg version="1.0" xmlns="http://www.w3.org/2000/svg"
 width="1024.000000pt" height="1024.000000pt" viewBox="0 0 1024.000000 1024.000000"
 preserveAspectRatio="xMidYMid meet">

<g transform="translate(0.000000,1024.000000) scale(0.100000,-0.100000)"
fill="#000000" stroke="none">
<path d="M4335 8276 c-16 -16 -25 -40 -30 -81 -9 -68 -1 -542 10 -567 3 -9 43
-32 88 -51 l82 -36 3 322 c3 401 -5 437 -98 437 -19 0 -40 -9 -55 -24z m86
-163 c16 -41 8 -265 -10 -287 -10 -12 -17 -14 -27 -5 -11 9 -14 46 -14 159 0
80 3 150 7 153 14 15 34 6 44 -20z"/>
<path d="M5043 7976 c-100 -47 -139 -135 -130 -294 6 -106 35 -209 88 -313 17
-34 28 -63 25 -66 -7 -7 -191 42 -261 70 -33 13 -172 73 -310 132 -409 176
-516 215 -685 251 -116 24 -331 24 -420 1 -155 -41 -270 -124 -326 -234 -27
-53 -29 -67 -29 -163 0 -91 3 -112 25 -155 125 -254 582 -325 910 -142 88 49
229 183 284 270 46 72 42 100 -4 31 -84 -123 -226 -245 -353 -304 -191 -89
-443 -91 -622 -6 -136 66 -201 173 -193 321 10 175 125 292 335 339 298 66
727 -93 999 -370 69 -71 132 -163 261 -384 82 -141 140 -244 431 -765 52 -93
141 -251 197 -350 56 -99 150 -269 210 -377 59 -109 111 -198 116 -198 9 0 10
6 29 92 14 64 152 388 595 1393 75 171 157 357 182 415 26 58 50 109 55 114 4
6 8 -418 8 -940 0 -1039 1 -1021 -57 -1077 -30 -28 -100 -57 -138 -57 -34 0
-55 -10 -55 -26 0 -12 69 -14 430 -14 413 0 430 1 430 19 0 15 -10 19 -65 23
-95 8 -154 40 -185 103 l-25 50 -3 975 c-2 711 0 989 8 1029 15 65 65 126 118
141 21 5 62 10 93 10 40 0 59 4 62 14 3 8 3 17 0 20 -4 3 -140 6 -303 6 l-297
0 -121 -272 c-309 -694 -591 -1336 -659 -1497 l-15 -34 -42 79 c-112 208 -484
835 -594 1001 -94 142 -211 282 -299 359 -113 99 -217 180 -285 221 -105 65
-137 87 -142 100 -4 9 -1 10 12 3 28 -16 251 -120 337 -157 103 -44 258 -90
334 -99 l61 -7 75 -93 c181 -224 379 -339 606 -351 88 -5 178 6 216 26 6 3
-44 4 -111 3 -89 -3 -140 0 -187 12 -88 22 -232 95 -306 155 -62 51 -223 226
-223 242 0 5 22 9 49 9 114 0 274 46 381 109 170 101 249 271 190 408 -12 28
-31 60 -43 71 -25 22 -105 52 -142 52 -36 0 -130 -38 -150 -60 -18 -20 -18
-20 28 0 111 49 200 31 254 -52 38 -56 39 -160 4 -228 -79 -150 -280 -251
-505 -254 l-108 -1 -38 70 c-70 131 -94 216 -94 336 -1 100 0 108 29 155 51
82 150 118 223 80 36 -19 96 -83 118 -126 24 -49 29 -23 5 31 -25 58 -70 105
-123 129 -57 26 -102 25 -165 -4z"/>
<path d="M4294 7333 c7 -52 44 -906 77 -1772 6 -167 15 -315 19 -330 8 -25 8
-24 10 9 0 19 5 136 10 260 25 586 50 1343 50 1506 l0 181 -28 39 c-42 57
-122 144 -133 144 -6 0 -8 -17 -5 -37z"/>
<path d="M4500 6950 c0 -19 27 -64 50 -85 25 -22 25 -20 -10 48 -23 44 -40 60
-40 37z"/>
<path d="M4590 6778 c0 -21 50 -89 61 -82 6 3 0 22 -13 47 -23 41 -48 60 -48
35z"/>
<path d="M4065 6625 c3 -38 8 -93 11 -121 l6 -50 -83 -18 c-175 -38 -329 -118
-456 -240 -195 -185 -276 -421 -228 -664 51 -252 253 -444 557 -528 124 -34
338 -43 480 -20 292 48 540 191 695 400 43 59 53 95 11 40 -48 -62 -156 -168
-213 -209 -184 -131 -445 -203 -699 -192 -313 12 -560 157 -676 395 -160 328
24 744 413 933 87 42 182 68 196 53 5 -5 16 -58 25 -118 9 -60 19 -112 22
-115 7 -6 1 95 -12 202 l-7 55 49 7 c79 12 88 26 14 23 l-64 -3 -13 90 c-17
124 -35 175 -28 80z"/>
<path d="M4686 6600 c22 -37 42 -55 50 -47 10 10 -31 72 -50 75 -17 4 -17 3 0
-28z"/>
<path d="M4770 6465 c18 -47 30 -65 45 -65 21 0 19 12 -7 50 -30 43 -52 52
-38 15z"/>
<path d="M4855 6319 c11 -38 34 -69 51 -69 13 0 12 8 -9 42 -28 48 -53 64 -42
27z"/>
<path d="M4940 6177 c0 -18 38 -77 50 -77 15 0 12 18 -7 51 -18 31 -43 46 -43
26z"/>
<path d="M5025 6019 c4 -13 17 -37 29 -54 17 -24 21 -27 24 -12 4 21 -28 79
-47 85 -10 3 -11 -2 -6 -19z"/>
<path d="M5100 5895 c0 -20 43 -85 56 -85 13 0 11 7 -8 42 -20 36 -48 62 -48
43z"/>
<path d="M5180 5755 c0 -15 42 -85 50 -85 16 0 12 22 -10 58 -17 28 -40 43
-40 27z"/>
<path d="M5260 5611 c0 -18 35 -71 48 -71 17 0 15 7 -9 46 -20 32 -39 45 -39
25z"/>
<path d="M5330 5482 c0 -5 14 -29 32 -53 39 -54 51 -34 13 22 -26 37 -45 50
-45 31z"/>
<path d="M5420 5343 c0 -5 10 -24 22 -43 25 -41 36 -25 13 19 -14 28 -35 42
-35 24z"/>
<path d="M3233 4720 c-40 -24 -63 -67 -63 -117 0 -102 112 -165 198 -113 54
33 40 59 -17 29 -34 -17 -42 -18 -77 -7 -44 15 -64 45 -64 98 0 46 21 76 65
90 30 10 40 9 68 -7 32 -19 57 -20 57 -2 0 17 -65 49 -100 49 -19 0 -49 -9
-67 -20z"/>
<path d="M3583 4725 c-66 -28 -91 -115 -53 -182 55 -100 182 -98 230 2 25 52
25 68 0 121 -33 67 -105 91 -177 59z m130 -56 c53 -57 19 -150 -60 -165 -28
-6 -38 -1 -68 29 -37 37 -44 71 -25 122 12 31 65 57 100 49 14 -2 37 -18 53
-35z"/>
<path d="M3909 4733 c0 -4 -1 -64 -1 -133 1 -104 3 -126 16 -128 13 -3 16 13
18 99 l3 103 75 -99 c105 -140 110 -138 110 24 0 118 -2 131 -17 131 -16 0
-18 -10 -15 -97 2 -54 0 -94 -5 -90 -4 5 -40 50 -78 100 -62 81 -103 116 -106
90z"/>
<path d="M4955 4723 c-69 -37 -90 -105 -55 -177 24 -51 67 -76 128 -76 50 0
108 42 82 59 -10 7 -20 5 -32 -6 -20 -18 -76 -20 -107 -4 -53 29 -64 116 -18
159 36 34 74 38 109 12 31 -23 54 -17 43 13 -14 35 -100 47 -150 20z"/>
<path d="M5294 4730 c-11 -4 -33 -22 -47 -40 -21 -25 -27 -42 -27 -82 0 -80
55 -138 132 -138 34 0 98 32 98 49 0 18 -17 21 -36 6 -10 -8 -38 -15 -62 -15
-57 0 -92 35 -92 92 0 50 13 74 50 93 33 17 74 12 102 -12 17 -15 38 -10 38 8
0 5 -15 18 -32 29 -34 21 -87 25 -124 10z"/>
<path d="M5834 4726 c-99 -44 -101 -191 -4 -241 86 -45 190 21 190 120 0 39
-26 92 -54 110 -35 23 -95 28 -132 11z m91 -30 c43 -18 59 -48 52 -103 -8 -71
-59 -107 -120 -84 -82 31 -83 158 -2 192 28 11 31 11 70 -5z"/>
<path d="M6167 4733 c-2 -5 -3 -64 -3 -133 1 -110 3 -125 19 -128 15 -3 17 7
17 105 l0 108 19 -30 c43 -67 138 -180 154 -183 15 -3 17 9 17 127 0 118 -2
131 -17 131 -16 0 -18 -8 -15 -63 2 -35 2 -78 0 -97 -3 -33 -4 -32 -81 69 -71
91 -99 115 -110 94z"/>
<path d="M6913 4730 c-24 -10 -43 -39 -43 -68 0 -26 38 -58 87 -73 24 -6 51
-21 60 -31 17 -19 17 -21 -7 -40 -18 -15 -32 -18 -60 -13 -19 4 -39 11 -44 16
-6 5 -18 9 -28 9 -44 0 2 -48 55 -57 71 -11 127 22 127 75 0 37 -22 56 -90 79
-42 15 -56 25 -58 41 -5 33 41 48 90 28 46 -17 63 -2 28 26 -24 19 -79 23
-117 8z"/>
<path d="M4290 4599 c0 -119 2 -130 18 -127 13 2 18 15 20 58 l3 55 60 -3 c55
-4 60 -2 57 15 -3 14 -14 19 -61 21 l-57 3 0 39 0 39 67 3 c42 2 68 8 71 16 3
9 -19 12 -87 12 l-91 0 0 -131z"/>
<path d="M4582 4603 l3 -128 93 -3 c85 -3 93 -1 90 15 -3 15 -15 18 -76 21
l-72 3 0 39 0 40 65 0 c51 0 65 3 65 15 0 12 -14 15 -65 15 l-65 0 0 40 0 40
75 0 c60 0 75 3 75 15 0 12 -17 15 -95 15 l-96 0 3 -127z"/>
<path d="M5580 4600 c0 -109 2 -130 15 -130 13 0 15 21 15 130 0 109 -2 130
-15 130 -13 0 -15 -21 -15 -130z"/>
<path d="M6550 4600 l0 -131 92 3 c79 3 93 6 96 21 3 15 -6 17 -72 17 l-76 0
0 40 0 40 60 0 c47 0 60 3 60 15 0 12 -13 15 -60 15 l-60 0 0 40 0 40 70 0
c56 0 70 3 70 15 0 12 -17 15 -90 15 l-90 0 0 -130z"/>
<path d="M2147 4594 c-4 -4 -4 -11 -1 -15 3 -5 180 -9 395 -9 339 0 389 2 389
15 0 13 -50 15 -388 15 -214 0 -392 -3 -395 -6z"/>
<path d="M7297 4593 c-4 -3 -7 -10 -7 -15 0 -4 180 -8 401 -8 316 0 400 3 397
13 -4 9 -93 13 -395 15 -214 1 -392 -1 -396 -5z"/>
<path d="M3695 4214 c-75 -11 -243 -58 -323 -90 -190 -77 -396 -214 -456 -304
-36 -54 -45 -120 -22 -155 20 -31 70 -57 99 -52 21 3 21 4 2 12 -107 44 -54
142 165 302 122 89 329 188 467 224 143 36 287 24 307 -26 14 -38 4 -94 -28
-160 -50 -104 -99 -169 -426 -570 -351 -430 -383 -475 -331 -475 33 0 122 82
247 226 65 76 166 192 223 258 216 250 419 431 615 548 132 78 266 113 266 69
0 -46 -105 -196 -372 -533 -81 -102 -161 -208 -178 -234 -32 -52 -38 -95 -16
-114 31 -25 59 -7 116 76 219 319 514 599 783 744 87 47 163 62 173 35 15 -38
-37 -113 -234 -338 -142 -163 -275 -343 -317 -432 -86 -178 -41 -273 130 -274
43 -1 75 6 111 23 56 26 86 55 43 42 -109 -34 -125 -37 -161 -26 -46 13 -62
40 -56 95 11 94 106 249 275 448 281 331 306 369 306 445 0 37 -5 50 -27 69
-76 65 -265 -19 -535 -238 -144 -117 -152 -122 -100 -59 96 115 159 228 159
287 0 8 -11 25 -25 38 -42 43 -148 29 -275 -35 -70 -35 -233 -145 -302 -203
-35 -29 -85 -71 -112 -92 l-50 -40 52 64 c74 92 121 187 128 258 7 75 -22 136
-81 167 -39 20 -166 31 -240 20z"/>
<path d="M6614 3902 c-33 -24 -123 -124 -191 -210 -16 -20 -29 -24 -103 -28
-46 -2 -88 -8 -93 -13 -20 -20 6 -28 80 -23 l77 5 -35 -49 c-20 -27 -58 -80
-84 -118 -56 -79 -198 -202 -283 -245 -111 -56 -162 -50 -162 17 1 49 26 103
106 222 65 97 72 120 33 120 -45 0 -85 -28 -129 -91 -65 -92 -166 -195 -235
-240 -73 -48 -160 -76 -181 -58 -24 20 -15 71 26 147 42 76 49 106 27 115 -26
10 -68 -20 -132 -96 -73 -85 -124 -127 -200 -163 -153 -73 -148 24 10 181 129
130 212 177 308 176 57 -1 85 -14 97 -47 14 -37 32 -29 28 13 -2 30 -9 41 -38
58 -108 63 -341 -25 -529 -200 -98 -92 -126 -171 -75 -222 23 -23 31 -25 97
-21 81 4 140 28 204 83 48 41 62 44 56 11 -7 -33 23 -85 52 -92 45 -11 114 6
204 51 48 25 108 62 132 84 l46 40 -5 -52 c-5 -63 19 -101 75 -116 80 -22 238
48 357 158 36 34 38 34 31 11 -23 -80 -18 -123 21 -169 70 -83 214 -52 411 90
45 32 83 59 85 59 2 0 2 -17 0 -37 -3 -48 14 -81 58 -111 73 -50 255 -12 420
88 76 46 219 172 202 178 -6 2 -48 -25 -94 -60 -147 -112 -324 -184 -417 -169
-45 8 -70 46 -56 86 8 23 25 33 100 60 115 41 208 94 268 153 52 51 59 80 26
113 -19 19 -30 21 -88 17 -106 -8 -206 -65 -347 -199 -172 -164 -341 -269
-432 -269 -54 0 -66 17 -60 86 6 69 73 205 158 319 l60 80 89 6 c179 13 206
37 47 41 l-105 3 47 61 c26 34 66 85 90 113 23 29 42 59 42 67 0 24 -54 16
-96 -14z m556 -350 c0 -24 -43 -71 -103 -111 -56 -38 -216 -115 -224 -108 -14
15 165 184 232 220 43 23 95 22 95 -1z"/>
<path d="M6020 3807 c-63 -32 -63 -117 1 -117 63 0 118 94 70 120 -25 13 -40
13 -71 -3z"/>
<path d="M5030 2711 c-74 -24 -132 -75 -171 -150 -30 -59 -35 -134 -14 -206
22 -79 99 -156 175 -179 123 -37 239 -9 315 76 126 140 86 362 -80 443 -43 21
-180 31 -225 16z m175 -47 c54 -19 120 -79 141 -130 20 -47 17 -141 -5 -189
-51 -111 -178 -168 -292 -130 -165 55 -223 253 -112 376 73 81 168 106 268 73z"/>
<path d="M5058 2634 c-88 -27 -154 -120 -146 -206 17 -176 224 -254 356 -134
54 49 80 154 54 218 -21 52 -81 107 -135 123 -60 18 -68 18 -129 -1z m32 -119
l0 -45 -51 0 -51 0 17 28 c22 34 53 62 71 62 10 0 14 -13 14 -45z m125 19 c14
-15 25 -35 25 -45 0 -16 -8 -19 -45 -19 l-45 0 0 45 c0 39 3 45 20 45 12 0 32
-12 45 -26z m-125 -169 c0 -26 -5 -45 -11 -45 -14 0 -79 65 -79 79 0 6 19 11
45 11 l45 0 0 -45z m150 29 c0 -20 -54 -74 -74 -74 -12 0 -16 11 -16 45 l0 45
45 0 c34 0 45 -4 45 -16z"/>
<path d="M4600 2495 c-33 -35 -31 -81 4 -112 37 -31 71 -29 107 6 33 33 35 50
14 90 -25 49 -87 57 -125 16z"/>
<path d="M5545 2495 c-57 -56 -4 -147 75 -130 60 13 81 97 34 134 -36 28 -79
27 -109 -4z"/>
<path d="M3500 2470 c0 -20 7 -20 466 -20 421 0 466 2 460 16 -3 9 -6 18 -6
20 0 2 -207 4 -460 4 -453 0 -460 0 -460 -20z"/>
<path d="M5770 2470 c0 -20 7 -20 480 -20 473 0 480 0 480 20 0 20 -7 20 -480
20 -473 0 -480 0 -480 -20z"/>
</g>
</svg>
